# xmcd
#
# Track frame offsets: 
#        150
#        10029
#        23483
#        33175
#        44083
#        54871
#        64558
#        74142
#        84259
#        96247
#        105645
#        113512
#        122107
#        132874
#        143174
#        150451
#        160960
#        170100
#        179563
#        191188
#        203538
#        212175
#        221617
#        231595
#        240563
#        249329
#        257553
#        265338
#        275939
#        286464
#        297849
#        306594
#        317934
#        327572
#        338518
#
# Disc length: 4642 seconds
#
# Revision: 0
# Processed by: cddbd v1.5.2PL0 Copyright (c) Steve Scherf et al.
# Submitted via: ExactAudioCopy v0.99pb4
#
DISCID=16122023
DTITLE=Various Artist - Nashville Bluegrass 
DYEAR=2003
DGENRE=Bluegrass
TTITLE0=The Cumberland Mountian Boys - I'm Going Down And Have Myself 
TTITLE0=A Ball
TTITLE1=The Webster Brothers - Thank God For The U.S.A.
TTITLE2=The Cumberland Mountain Boys - Hittin' On Five
TTITLE3=The Bluegrass Lookouts - Glory Be, Hallelijah, Amen
TTITLE4=Johnny Varnell And Jim Pipkins - What Can I Do Without You
TTITLE5=The Cumberland Mountain Boys - Cumberland Breakdown
TTITLE6=The Webster Brothers - I'm Gonna Steal Away
TTITLE7=The Dixieland Drifters - Glory Glory
TTITLE8=The Cumberland Mountain Boys - We'll Be Singing Together
TTITLE9=The Bluegrass Lookouts - D-String Stomp
TTITLE10=The Webster Brothers - Cold Fire Burns In My Heart
TTITLE11=The Cumberland Mountain Boys - Facts And Figures
TTITLE12=The Dixieland Drifters - Will You Meet Me
TTITLE13=The Cumberland Mountain Boys - Whirlpool
TTITLE14=The Webster Brothers - You Don't Care Enough For Me
TTITLE15=The Bluegrass Lookouts - Great White Angel
TTITLE16=The Cumberland Mountain Boys - You'll Be The One To Cry
TTITLE17=The Webster Brothers - Little Rita
TTITLE18=The Cumberland Mountain Boys - Smokey Mountain Cindy
TTITLE19=The Bluegrass Lookouts - Don't Forsake Your Little Children
TTITLE20=The Webster Brothers - My Heart Won't Let Me Forget You
TTITLE21=The Cumberland Mountain Boys - Stop Beatin' Around The Bush
TTITLE22=The Cumberland Mountain Boys - Hollow Rock
TTITLE23=The Bluegrass Lookouts - If The Answer Is Jesus
TTITLE24=The Webster Brothers - I'll Make It Through
TTITLE25=The Cumberland Mountain Boys - Your Love Is Off Limits
TTITLE26=The Bluegrass Lookouts - I Shall Hear Up In Heaven
TTITLE27=The Webster Brothers - All I Have Left
TTITLE28=The Cumberland Mountain Boys - Pepper Patch
TTITLE29=The Bluegrass Lookouts - Slow And Noiseless Footsteps
TTITLE30=The Webster Brothers - 'Til Death Do Us Part
TTITLE31=The Cumberland Mountain Boys - Fingerprints On My Heart
TTITLE32=The Cumberland Mountain Boys - All I Have Left Is Your Pictur
TTITLE32=e
TTITLE33=The Webster Brothers - She's Not Mine Anymore
TTITLE34=The Cumberland Mountain Boys - Powder River
EXTD=
EXTT0=
EXTT1=
EXTT2=
EXTT3=
EXTT4=
EXTT5=
EXTT6=
EXTT7=
EXTT8=
EXTT9=
EXTT10=
EXTT11=
EXTT12=
EXTT13=
EXTT14=
EXTT15=
EXTT16=
EXTT17=
EXTT18=
EXTT19=
EXTT20=
EXTT21=
EXTT22=
EXTT23=
EXTT24=
EXTT25=
EXTT26=
EXTT27=
EXTT28=
EXTT29=
EXTT30=
EXTT31=
EXTT32=
EXTT33=
EXTT34=
PLAYORDER=
